HIERARCHY
ROOT Hips
{
	OFFSET 0.000000 89.005402 0.000000
	CHANNELS 6 Xposition Yposition Zposition Xrotation Yrotation Zrotation
	JOINT Spine
	{
		OFFSET 0.116900 10.681000 0.373400
		CHANNELS 3 Xrotation Yrotation Zrotation
		JOINT Spine1
		{
			OFFSET 0.000000 13.840401 0.053500
			CHANNELS 3 Xrotation Yrotation Zrotation
			JOINT Spine2
			{
				OFFSET 0.000000 14.712700 -0.366200
				CHANNELS 3 Xrotation Yrotation Zrotation
				JOINT Neck
				{
					OFFSET 0.000000 35.415497 -3.314200
					CHANNELS 3 Xrotation Yrotation Zrotation
					JOINT Head
					{
						OFFSET 0.000000 16.899200 1.218300
						CHANNELS 3 Xrotation Yrotation Zrotation
						JOINT HeadTop_End
						{
							OFFSET 0.000000 22.206207 2.192500
							CHANNELS 3 Xrotation Yrotation Zrotation
							End Site
							{
								OFFSET 0.000000 22.314178 0.000000
							}
						}
					}
				}
				JOINT LeftShoulder
				{
					OFFSET 12.896400 26.716293 -4.548400
					CHANNELS 3 Xrotation Yrotation Zrotation
					JOINT LeftArm
					{
						OFFSET 19.027000 -4.857010 -1.718400
						CHANNELS 3 Xrotation Yrotation Zrotation
						JOINT LeftForeArm
						{
							OFFSET 24.179897 0.000000 0.000000
							CHANNELS 3 Xrotation Yrotation Zrotation
							JOINT LeftHand
							{
								OFFSET 27.156403 0.000000 0.000000
								CHANNELS 3 Xrotation Yrotation Zrotation
								JOINT LeftHandIndex1
								{
									OFFSET 16.441200 0.000000 0.000000
									CHANNELS 3 Xrotation Yrotation Zrotation
									JOINT LeftHandIndex2
									{
										OFFSET 4.821899 0.000000 0.000000
										CHANNELS 3 Xrotation Yrotation Zrotation
										JOINT LeftHandIndex3
										{
											OFFSET 6.386497 0.000000 0.000000
											CHANNELS 3 Xrotation Yrotation Zrotation
											JOINT LeftHandIndex4
											{
												OFFSET 5.188988 0.000000 0.000000
												CHANNELS 3 Xrotation Yrotation Zrotation
												End Site
												{
													OFFSET -0.178703 5.185913 0.000177
												}
											}
										}
									}
								}
								JOINT LeftHandThumb1
								{
									OFFSET 6.534897 -5.032593 5.900300
									CHANNELS 3 Xrotation Yrotation Zrotation
									JOINT LeftHandThumb2
									{
										OFFSET 3.818176 -2.204422 2.204423
										CHANNELS 3 Xrotation Yrotation Zrotation
										JOINT LeftHandThumb3
										{
											OFFSET 3.252098 -1.877594 1.877601
											CHANNELS 3 Xrotation Yrotation Zrotation
											JOINT LeftHandThumb4
											{
												OFFSET 5.251778 -3.032120 3.032117
												CHANNELS 3 Xrotation Yrotation Zrotation
												End Site
												{
													OFFSET 0.000023 6.780014 0.000000
												}
											}
										}
									}
								}
							}
						}
					}
				}
				JOINT RightShoulder
				{
					OFFSET -12.896300 26.716293 -4.548400
					CHANNELS 3 Xrotation Yrotation Zrotation
					JOINT RightArm
					{
						OFFSET -19.027000 -4.857010 -1.718400
						CHANNELS 3 Xrotation Yrotation Zrotation
						JOINT RightForeArm
						{
							OFFSET -24.179897 0.000000 0.000000
							CHANNELS 3 Xrotation Yrotation Zrotation
							JOINT RightHand
							{
								OFFSET -27.156403 0.000000 0.000000
								CHANNELS 3 Xrotation Yrotation Zrotation
								JOINT RightHandThumb1
								{
									OFFSET -6.591202 -4.852203 5.988100
									CHANNELS 3 Xrotation Yrotation Zrotation
									JOINT RightHandThumb2
									{
										OFFSET -3.818176 -2.204422 2.204423
										CHANNELS 3 Xrotation Yrotation Zrotation
										JOINT RightHandThumb3
										{
											OFFSET -3.252098 -1.877594 1.877601
											CHANNELS 3 Xrotation Yrotation Zrotation
											JOINT RightHandThumb4
											{
												OFFSET -5.251778 -3.032120 3.032117
												CHANNELS 3 Xrotation Yrotation Zrotation
												End Site
												{
													OFFSET -0.000023 6.780014 0.000000
												}
											}
										}
									}
								}
								JOINT RightHandIndex1
								{
									OFFSET -16.029404 0.000000 0.000000
									CHANNELS 3 Xrotation Yrotation Zrotation
									JOINT RightHandIndex2
									{
										OFFSET -5.213303 0.000000 0.000000
										CHANNELS 3 Xrotation Yrotation Zrotation
										JOINT RightHandIndex3
										{
											OFFSET -6.386528 0.000000 0.000000
											CHANNELS 3 Xrotation Yrotation Zrotation
											JOINT RightHandIndex4
											{
												OFFSET -5.189026 0.000000 0.000000
												CHANNELS 3 Xrotation Yrotation Zrotation
												End Site
												{
													OFFSET 0.236702 5.183624 0.001972
												}
											}
										}
									}
								}
							}
						}
					}
				}
			}
		}
	}
	JOINT LeftUpLeg
	{
		OFFSET 14.073000 -7.904099 -1.463000
		CHANNELS 3 Xrotation Yrotation Zrotation
		JOINT LeftLeg
		{
			OFFSET -0.109806 -34.073280 4.093200
			CHANNELS 3 Xrotation Yrotation Zrotation
			JOINT LeftFoot
			{
				OFFSET 0.109806 -29.899420 -6.319000
				CHANNELS 3 Xrotation Yrotation Zrotation
				JOINT LeftToeBase
				{
					OFFSET 1.551100 -14.988700 20.535801
					CHANNELS 3 Xrotation Yrotation Zrotation
					JOINT LeftToe_End
					{
						OFFSET 0.221200 0.570800 13.248301
						CHANNELS 3 Xrotation Yrotation Zrotation
						End Site
						{
							OFFSET 0.000000 13.262435 0.000000
						}
					}
				}
			}
		}
	}
	JOINT RightUpLeg
	{
		OFFSET -13.839300 -7.904099 -1.463000
		CHANNELS 3 Xrotation Yrotation Zrotation
		JOINT RightLeg
		{
			OFFSET 0.109694 -34.073219 4.093300
			CHANNELS 3 Xrotation Yrotation Zrotation
			JOINT RightFoot
			{
				OFFSET -0.109694 -29.899384 -6.319200
				CHANNELS 3 Xrotation Yrotation Zrotation
				JOINT RightToeBase
				{
					OFFSET -1.551100 -14.988700 20.535801
					CHANNELS 3 Xrotation Yrotation Zrotation
					JOINT RightToe_End
					{
						OFFSET -0.221200 0.570900 13.248299
						CHANNELS 3 Xrotation Yrotation Zrotation
						End Site
						{
							OFFSET 0.000000 13.262440 0.000000
						}
					}
				}
			}
		}
	}
}
MOTION
Frames: 8
Frame Time: 0.033333
-5.850375 79.335175 -35.691723 -0.396648 -41.539455 -2.522178 5.935838 4.933335 -1.007806 12.069259 9.577603 -2.914532 12.069265 9.577595 -2.914529 -6.975893 0.451132 0.217938 -5.857054 20.036843 -2.984013 -0.000000 0.000000 0.000000 1.225670 -0.891032 -7.303335 -11.973444 6.902050 -61.374646 -0.125853 -55.135411 0.448414 18.371785 -3.300536 20.766996 0.231841 -8.307904 -0.120430 -0.167050 0.585379 -18.585541 0.000001 -0.000008 0.000008 0.000001 -0.000002 0.000000 5.172335 -1.826590 -6.770294 -0.585866 0.292703 0.182690 -0.000009 -0.000010 -0.000008 -0.000000 -0.000001 -0.000001 1.343205 9.325878 10.578945 0.440407 -15.927106 63.541065 -3.482442 53.254384 4.508020 5.491476 11.211289 3.476473 -4.120663 3.654041 4.817527 1.238126 -17.987189 -7.430389 0.000005 -0.000024 0.000000 0.000001 -0.000000 0.000001 -0.222040 5.550752 -3.957055 0.166797 -1.353798 14.568696 -0.000000 0.000009 -0.000000 0.000000 -0.000003 -0.000001 -36.788000 0.193170 10.124246 47.665380 -10.449872 4.499092 -7.183861 1.007015 -7.904578 -5.003908 -5.472733 0.991189 0.000000 0.000002 0.000000 3.226086 -13.248246 -14.343920 25.876448 -12.659938 -4.552754 -20.878138 -7.138463 25.793038 -0.805854 -1.408903 1.415260 0.000000 -0.000000 -0.000000 
-5.848869 78.241158 -37.306519 -1.169823 -42.391009 -2.375111 5.905232 4.898648 -1.281341 11.983557 9.501850 -3.100159 11.983561 9.501844 -3.100159 -6.486494 0.163969 0.294139 -4.935082 20.873260 -3.170047 0.000001 0.000000 -0.000000 1.189004 -1.508360 -7.800810 -14.095883 5.737401 -58.580299 1.543170 -52.154269 2.098275 17.487315 -2.278638 21.391439 0.221939 -8.054579 0.037175 -0.092426 0.664401 -17.772931 -0.000004 -0.000002 0.000009 0.000002 -0.000000 0.000002 5.043103 -2.047810 -6.824411 -0.637179 0.344695 -0.136676 -0.000004 -0.000009 -0.000008 0.000001 -0.000000 -0.000001 1.361025 9.378149 10.348567 1.072421 -17.001295 63.001624 -4.422707 52.711927 5.182125 4.752536 11.649419 6.654693 -5.718245 1.316206 3.274661 2.883720 -17.904791 -6.294334 0.000003 -0.000024 -0.000001 0.000001 -0.000000 0.000002 -0.236910 6.372198 -2.640316 0.201997 -1.331611 14.695142 -0.000000 0.000007 -0.000001 0.000000 -0.000004 -0.000000 -36.854359 0.529722 10.011274 48.440637 -11.189449 5.262806 -9.947523 1.063776 -6.803411 -3.903544 -4.386690 1.331720 0.000000 -0.000002 0.000000 -0.564520 -11.886241 -16.103295 33.423941 -11.240844 -3.556519 -23.650920 -7.957036 26.410444 -1.546772 -0.830806 0.786830 -0.000000 -0.000000 -0.000000 
-5.932103 77.655563 -38.640266 -2.097522 -42.946802 -2.487232 5.904039 4.854787 -1.437504 11.964133 9.409784 -3.187187 11.964125 9.409788 -3.187189 -6.000628 -0.118009 0.336083 -4.162971 22.334370 -3.304125 0.000001 0.000000 -0.000000 1.133657 -1.067355 -7.055150 -14.786922 5.066786 -58.455348 2.829567 -49.543184 3.113374 16.447066 -1.820069 20.868612 0.149152 -7.837748 -0.075860 -0.029804 0.728968 -17.125081 -0.000001 -0.000001 0.000007 -0.000000 -0.000000 -0.000000 4.910108 -2.274695 -6.880863 -0.634239 0.351433 -0.253889 -0.000005 -0.000006 -0.000007 -0.000001 0.000002 -0.000000 1.369624 9.347015 10.303476 1.392207 -18.018082 62.186455 -5.338089 48.295827 6.228833 5.252536 11.824196 8.713627 -7.841454 -1.118607 1.546900 4.911286 -17.954843 -4.610969 0.000004 -0.000024 -0.000000 -0.000001 -0.000000 -0.000000 -0.844500 7.652020 -0.285588 0.183743 -1.265773 15.373745 0.000000 0.000009 -0.000001 -0.000000 -0.000000 0.000000 -36.693774 1.366801 10.628873 48.624018 -10.357914 5.288751 -10.644200 1.125440 -6.712620 -3.364918 -4.179303 1.291485 -0.000000 -0.000000 -0.000000 -2.806272 -11.800514 -17.717456 38.252355 -9.391178 -1.594334 -26.148382 -7.765745 24.598496 -2.653793 -0.215590 0.089549 0.000000 0.000000 -0.000000 
-6.025813 77.638359 -39.494431 -3.067026 -43.287792 -2.796145 5.910225 4.810484 -1.457179 11.974945 9.312722 -3.214014 11.974948 9.312732 -3.214020 -5.591583 -0.375882 0.378595 -3.932210 22.016676 -3.143690 -0.000001 0.000000 -0.000000 1.031674 -0.635859 -6.125667 -15.093297 4.495675 -58.790580 5.157862 -47.959707 4.039814 16.069666 -0.926198 19.307143 -0.006985 -7.649460 -0.548683 0.000113 0.768234 -16.705196 0.000002 -0.000003 0.000004 0.000001 -0.000003 0.000005 4.902748 -2.287187 -6.883982 -0.599294 0.318831 -0.158303 -0.000007 -0.000008 -0.000010 -0.000002 -0.000003 0.000001 1.374221 9.273292 10.346061 1.562788 -18.966952 61.842192 -6.239698 45.022695 7.355678 6.213564 12.022364 8.910345 -8.733981 -2.273920 0.695179 5.845237 -17.849043 -3.917964 0.000004 -0.000024 -0.000000 0.000000 0.000000 -0.000001 -1.281341 7.592904 1.250458 0.174297 -1.236041 15.683894 -0.000001 0.000008 -0.000001 0.000000 -0.000003 -0.000000 -36.559148 2.032251 12.583348 47.538564 -11.942070 3.455261 -8.347184 1.052585 -7.631228 -3.371798 -4.298656 1.344596 -0.000000 -0.000002 -0.000000 -3.013771 -12.605789 -18.637493 39.073381 -7.699562 0.012363 -27.553873 -7.252623 22.466818 -2.895957 0.089964 -0.212037 -0.000000 0.000002 -0.000000 
-6.230924 78.596939 -40.063187 -3.964022 -43.490809 -3.086770 5.914331 4.754310 -1.472360 11.979811 9.224186 -3.218773 11.979815 9.224200 -3.218773 -5.231422 -0.630330 0.408302 -4.244827 20.814243 -2.631735 0.000001 -0.000000 -0.000000 1.079673 -0.699968 -6.416278 -15.187593 3.978743 -59.397190 7.720208 -47.146235 4.795359 15.955566 -0.120622 18.573600 -0.295665 -7.426803 -1.551865 0.009545 0.787400 -16.489721 -0.000003 -0.000004 0.000006 0.000000 -0.000001 0.000001 4.902752 -2.287187 -6.883987 -0.516033 0.242227 0.142596 -0.000000 -0.000006 -0.000008 -0.000002 0.000002 -0.000003 1.380030 9.197177 10.380084 1.627217 -19.992561 61.668310 -7.018894 43.989891 8.360816 5.920827 12.165536 9.718471 -8.639352 -3.166759 0.393089 6.465399 -18.425936 -3.630910 0.000003 -0.000024 0.000000 -0.000001 -0.000000 -0.000000 -1.411407 4.299246 2.832685 0.156652 -1.180070 16.266024 0.000001 0.000011 -0.000001 -0.000001 -0.000001 -0.000000 -33.739017 3.169599 13.907970 42.592903 -12.811869 1.785436 -6.079528 0.979288 -8.648491 -2.991402 -4.152365 1.323433 -0.000000 -0.000001 0.000000 -1.724781 -13.760423 -18.645791 36.346240 -6.735886 0.825753 -26.638395 -6.479122 20.712646 -2.553537 0.092701 -0.171385 0.000000 0.000001 -0.000000 
-6.337845 79.247314 -40.348236 -4.676108 -43.661974 -3.268730 5.896191 4.712128 -1.495763 11.941162 9.157434 -3.239549 11.941160 9.157426 -3.239548 -4.883238 -0.886725 0.405343 -4.798944 20.404031 -1.943855 -0.000000 -0.000000 -0.000000 1.196190 -0.763504 -7.029763 -15.123101 3.522847 -60.177245 8.774689 -47.098748 5.190339 15.937379 0.288935 18.546318 -0.498300 -7.291711 -2.294308 0.011688 0.794341 -16.424353 -0.000002 -0.000003 0.000003 -0.000000 0.000000 -0.000001 4.902743 -2.287207 -6.884006 -0.428857 0.176333 0.404580 -0.000004 -0.000010 -0.000010 -0.000000 -0.000000 -0.000001 1.392256 9.159483 10.307975 1.610993 -21.034768 61.562571 -7.520168 43.538955 9.005806 5.648176 12.172658 10.503330 -8.536056 -3.695854 0.242861 6.845831 -18.820713 -3.472699 0.000006 -0.000023 0.000000 0.000003 0.000000 0.000001 -1.317506 1.921170 3.522858 0.144537 -1.141150 16.670516 0.000000 0.000010 -0.000001 0.000000 0.000001 -0.000000 -31.351176 3.909678 14.154512 39.095057 -12.951511 1.118786 -5.120568 0.962223 -9.109676 -2.683375 -3.824881 1.160758 -0.000000 -0.000002 0.000000 -0.749730 -14.175041 -18.517597 34.517976 -6.490705 0.859772 -25.768835 -6.137762 20.061475 -2.269874 -0.012616 -0.040786 0.000000 0.000000 -0.000000 
-6.382942 79.575096 -40.495361 -5.036984 -43.426998 -3.374311 5.869740 4.690308 -1.474484 11.883956 9.123873 -3.179775 11.883956 9.123867 -3.179774 -4.576164 -1.116346 0.380530 -5.435980 20.327667 -1.226106 -0.000001 0.000000 0.000000 1.273533 -0.769021 -7.398518 -14.952454 3.134694 -61.033648 9.248894 -47.196471 5.435866 15.972918 0.528804 18.591297 -0.630416 -7.208268 -2.792124 0.012624 0.797375 -16.396018 0.000001 -0.000004 0.000005 -0.000003 0.000002 -0.000003 4.902739 -2.287208 -6.883995 -0.357839 0.124383 0.596874 -0.000006 -0.000009 -0.000007 -0.000002 -0.000003 0.000006 1.418058 9.177260 10.041922 1.539643 -22.030078 61.430954 -7.633024 43.165990 9.155543 5.641420 12.189679 10.974879 -8.567416 -4.116556 0.075157 7.206918 -19.039328 -3.264705 0.000003 -0.000024 0.000000 0.000001 -0.000000 0.000000 -1.242674 0.636316 3.903674 0.137455 -1.118169 16.909460 -0.000001 0.000007 -0.000002 0.000001 0.000001 -0.000000 -30.236670 4.320671 14.219019 37.215437 -13.364830 0.727577 -4.479129 0.924425 -9.172178 -2.536603 -3.608763 1.038229 -0.000000 0.000002 0.000000 0.025549 -14.337204 -18.194555 33.440367 -6.821668 0.676467 -25.281822 -6.056260 19.990468 -2.106677 -0.100380 0.059284 0.000000 0.000000 0.000000 
-6.406766 79.778961 -40.607731 -5.338718 -43.273555 -3.488947 5.855364 4.672097 -1.457791 11.852229 9.093704 -3.136502 11.852234 9.093716 -3.136508 -4.338487 -1.291030 0.344286 -5.977078 20.326641 -0.632603 -0.000001 -0.000000 0.000000 1.325766 -0.752211 -7.628731 -14.728193 2.820972 -61.869349 9.540631 -47.304073 5.621203 16.023680 0.693905 18.644110 -0.739719 -7.141098 -3.211236 0.013177 0.799182 -16.375809 -0.000001 -0.000006 0.000007 0.000005 -0.000002 -0.000000 4.902748 -2.287207 -6.883997 -0.290108 0.075689 0.769014 -0.000003 -0.000011 -0.000006 -0.000002 -0.000001 0.000003 1.428875 9.239113 9.869774 1.438863 -22.915052 61.194527 -7.446053 42.814979 8.948682 5.735201 12.219027 11.299087 -8.629422 -4.431785 -0.069314 7.487793 -19.169539 -3.097153 0.000004 -0.000024 -0.000000 0.000002 -0.000000 -0.000001 -1.185047 -0.209556 4.164565 0.133497 -1.105368 17.042983 0.000000 0.000010 -0.000000 0.000001 -0.000002 -0.000001 -29.496828 4.626597 14.304471 35.991467 -13.694088 0.421264 -4.027360 0.896770 -9.179815 -2.447608 -3.455896 0.947328 0.000000 -0.000001 -0.000000 0.578220 -14.376669 -17.913481 32.760480 -7.099252 0.457408 -24.980995 -6.029744 19.996513 -1.990220 -0.176086 0.142768 0.000000 0.000001 0.000000 
